<svg xmlns="http://www.w3.org/2000/svg" viewBox="0 0 640 360" width="640" height="360" role="img" aria-label="Glyph renders Markdown into a styled document">
  <defs>
    <linearGradient id="bg" x1="0" y1="0" x2="1" y2="1">
      <stop offset="0" stop-color="#6366f1"/>
      <stop offset="1" stop-color="#0ea5e9"/>
    </linearGradient>
    <linearGradient id="paper" x1="0" y1="0" x2="0" y2="1">
      <stop offset="0" stop-color="#ffffff"/>
      <stop offset="1" stop-color="#eef2ff"/>
    </linearGradient>
  </defs>

  <rect x="0" y="0" width="640" height="360" rx="20" fill="url(#bg)"/>

  <!-- Source panel -->
  <rect x="40" y="60" width="230" height="240" rx="12" fill="#0f172a" opacity="0.92"/>
  <text x="60" y="96" font-family="monospace" font-size="15" fill="#94a3b8"># Glyph</text>
  <text x="60" y="128" font-family="monospace" font-size="15" fill="#e2e8f0">**Markdown** in,</text>
  <text x="60" y="156" font-family="monospace" font-size="15" fill="#e2e8f0">styled docs out.</text>
  <text x="60" y="196" font-family="monospace" font-size="15" fill="#38bdf8">- math, code</text>
  <text x="60" y="224" font-family="monospace" font-size="15" fill="#38bdf8">- diagrams</text>
  <text x="60" y="252" font-family="monospace" font-size="15" fill="#38bdf8">- images</text>

  <!-- Arrow -->
  <path d="M286 180 H354" stroke="#ffffff" stroke-width="6" stroke-linecap="round"/>
  <path d="M346 166 L368 180 L346 194 Z" fill="#ffffff"/>

  <!-- Rendered panel -->
  <rect x="384" y="60" width="216" height="240" rx="12" fill="url(#paper)"/>
  <rect x="408" y="86" width="120" height="18" rx="6" fill="#1e293b"/>
  <rect x="408" y="120" width="168" height="10" rx="5" fill="#64748b"/>
  <rect x="408" y="138" width="150" height="10" rx="5" fill="#64748b"/>
  <rect x="408" y="170" width="168" height="40" rx="8" fill="#e0e7ff"/>
  <circle cx="430" cy="190" r="9" fill="#6366f1"/>
  <rect x="448" y="185" width="120" height="10" rx="5" fill="#818cf8"/>
  <rect x="408" y="228" width="100" height="10" rx="5" fill="#64748b"/>
  <rect x="408" y="246" width="140" height="10" rx="5" fill="#64748b"/>

  <text x="320" y="338" text-anchor="middle" font-family="sans-serif" font-size="16" fill="#ffffff" opacity="0.9">A local SVG, rendered inline and zoomable in the lightbox</text>
</svg>
